<?xml version="1.0"?>
<svg xmlns="http://www.w3.org/2000/svg" xmlns:xlink="http://www.w3.org/1999/xlink" xmlns:svgjs="http://svgjs.com/svgjs" version="1.1" width="512" height="512" x="0" y="0" viewBox="0 0 512 512" style="enable-background:new 0 0 512 512" xml:space="preserve" class=""><g><g xmlns="http://www.w3.org/2000/svg"><path d="m62.703 451h90.594l-18-90h29.703v-30h-35.703l-6-30h40.652l136.684 19.243c34.985 4.998 61.367 35.417 61.367 70.757h30v-330h-30c0 35.34-26.382 65.759-61.337 70.753l-136.714 19.247h-163.949v150h32.703zm54-30h-29.406l-24-120h29.405zm188.172-259.544c21.672-3.096 41.683-13.126 57.125-28.456v186.002c-15.443-15.33-35.456-25.361-57.155-28.461l-124.845-17.577v-93.928zm-274.875 19.544h120v90h-120z" fill="#107192" data-original="#000000" style=""/><path d="m422 211h90v30h-90z" fill="#107192" data-original="#000000" style=""/><path d="m437 267.459h30v67.082h-30z" transform="matrix(.447 -.894 .894 .447 -19.359 570.677)" fill="#107192" data-original="#000000" style=""/><path d="m418.459 136h67.082v30h-67.082z" transform="matrix(.894 -.447 .447 .894 -19.811 218.075)" fill="#107192" data-original="#000000" style=""/></g></g></svg>
