<?xml version="1.0"?>
<svg xmlns="http://www.w3.org/2000/svg" xmlns:xlink="http://www.w3.org/1999/xlink" xmlns:svgjs="http://svgjs.com/svgjs" version="1.1" width="512" height="512" x="0" y="0" viewBox="0 0 497.694 497.694" style="enable-background:new 0 0 512 512" xml:space="preserve" class=""><g>
<g xmlns="http://www.w3.org/2000/svg">
	<g>
		<g>
			<path d="M475.106,0.376H21.835C9.788,0.376,0,10.165,0,22.212v454.024c0,11.294,9.788,21.082,21.835,21.082h454.024     c12.047,0,21.835-9.788,21.835-21.835V22.212C496.941,10.165,487.153,0.376,475.106,0.376z M481.882,476.235     c0,3.012-3.012,6.023-6.776,6.023H21.835c-3.765,0-6.776-3.012-6.776-6.776V116.329h466.823V476.235z M481.882,101.271H15.059     V22.212c0-3.765,3.012-6.776,6.776-6.776h454.024c3.012,0,6.023,3.012,6.023,6.776V101.271z" fill="#107192" data-original="#000000" style="" class=""/>
			<path d="M57.976,37.271c-12.047,0-21.835,9.788-21.835,21.835s9.788,21.835,21.835,21.835s21.835-9.788,21.835-21.835     C79.812,47.059,70.024,37.271,57.976,37.271z M57.976,65.882c-3.765,0-6.776-3.012-6.776-6.776s3.012-6.776,6.776-6.776     s6.776,3.012,6.776,6.776S61.741,65.882,57.976,65.882z" fill="#107192" data-original="#000000" style="" class=""/>
			<path d="M112.941,37.271c-12.047,0-21.835,9.788-21.835,21.835s9.788,21.835,21.835,21.835s21.835-9.788,21.835-21.835     C134.776,47.059,124.988,37.271,112.941,37.271z M112.941,65.882c-3.765,0-6.776-3.012-6.776-6.776s3.012-6.776,6.776-6.776     s6.776,3.012,6.776,6.776S116.706,65.882,112.941,65.882z" fill="#107192" data-original="#000000" style="" class=""/>
			<path d="M167.906,37.271c-12.047,0-21.835,9.788-21.835,21.835c0,12.047,9.788,21.835,21.835,21.835s21.835-9.788,21.835-21.835     C189.741,47.059,179.953,37.271,167.906,37.271z M167.906,65.882c-3.765,0-6.776-3.012-6.776-6.776     c-0.753-3.765,3.012-6.776,6.776-6.776s6.776,3.012,6.776,6.776S171.671,65.882,167.906,65.882z" fill="#107192" data-original="#000000" style="" class=""/>
			<path d="M459.294,32.753h-243.2c-4.518,0-7.529,3.012-7.529,7.529v36.894c0,4.518,3.012,8.282,7.529,8.282h243.2     c4.518,0,7.529-3.012,7.529-7.529V40.282C466.824,35.765,463.812,32.753,459.294,32.753z M451.765,69.647H223.624V47.812h228.141     V69.647z" fill="#107192" data-original="#000000" style="" class=""/>
			<path d="M366.682,335.435l10.541,30.871l-3.012,0.753c-3.765,1.506-6.023,6.023-4.518,9.788l24.847,68.518     c4.518,13.553,17.318,21.835,31.624,21.835c3.765,0,7.529-0.753,11.294-2.259c17.318-6.023,26.353-25.6,20.329-42.918     l-26.353-67.765c-0.753-2.259-2.259-3.765-3.765-4.518c-1.506-0.753-3.765-0.753-6.024,0l-3.012,0.753l-10.541-30.871     c35.388-23.341,51.2-68.518,36.894-109.929c-17.318-48.188-70.776-74.541-119.718-56.471     c-48.941,17.318-74.541,71.529-56.471,120.471C283.106,313.6,323.012,339.953,366.682,335.435z M420.141,367.059l21.835,61.741     c3.012,9.035-1.506,19.576-11.294,23.341c-9.035,3.012-19.576-1.506-23.341-11.294l-21.835-61.741     C387.765,378.353,420.141,367.059,420.141,367.059z M380.988,333.176c4.518-1.506,9.788-3.012,14.306-5.271l9.788,27.859     l-14.306,5.271L380.988,333.176z M329.788,168.282c41.412-15.059,85.835,6.776,100.894,47.435     c15.059,41.412-7.529,86.588-47.435,100.894c-41.412,15.059-86.588-6.776-100.894-47.435     C268.047,227.765,289.129,182.588,329.788,168.282z" fill="#107192" data-original="#000000" style="" class=""/>
			<path d="M48.941,232.282h60.988c4.518,0,7.529-3.012,7.529-7.529v-60.988c0-4.518-3.012-7.529-7.529-7.529H48.941     c-4.518,0-7.529,3.012-7.529,7.529v60.988C41.412,229.271,44.424,232.282,48.941,232.282z M56.471,171.294H102.4v45.929H56.471     V171.294z" fill="#107192" data-original="#000000" style="" class=""/>
			<path d="M51.2,260.894c-4.518,0-7.529,3.012-7.529,7.529v60.988c0,4.518,3.012,7.529,7.529,7.529h60.988     c4.518,0,7.529-3.012,7.529-7.529v-60.988c0-4.518-3.012-7.529-7.529-7.529H51.2z M104.659,321.882H58.729v-45.929h45.929     V321.882z" fill="#107192" data-original="#000000" style="" class=""/>
			<path d="M53.459,365.553c-4.518,0-7.529,3.012-7.529,7.529v60.988c0,4.518,3.012,7.529,7.529,7.529h60.988     c4.518,0,7.529-3.012,7.529-7.529v-60.988c0-4.518-3.012-7.529-7.529-7.529H53.459z M106.918,425.788H60.988v-45.929h45.929     V425.788z" fill="#107192" data-original="#000000" style="" class=""/>
			<path d="M152.094,232.282h88.847c4.518,0,7.529-3.012,7.529-7.529s-3.012-7.529-7.529-7.529h-88.847     c-4.518,0-7.529,3.012-7.529,7.529S148.329,232.282,152.094,232.282z" fill="#107192" data-original="#000000" style="" class=""/>
			<path d="M152.094,331.671h88.847c4.518,0,7.529-3.012,7.529-7.529s-3.012-7.529-7.529-7.529h-88.847     c-4.518,0-7.529,3.012-7.529,7.529S148.329,331.671,152.094,331.671z" fill="#107192" data-original="#000000" style="" class=""/>
			<path d="M152.094,431.812H320c4.518,0,7.529-3.012,7.529-7.529s-3.012-7.529-7.529-7.529H152.094     c-4.518,0-7.529,3.012-7.529,7.529S147.576,431.812,152.094,431.812z" fill="#107192" data-original="#000000" style="" class=""/>
			<path d="M152.094,193.129h88.847c4.518,0,7.529-3.012,7.529-7.529s-3.012-7.529-7.529-7.529h-88.847     c-4.518,0-7.529,3.012-7.529,7.529S148.329,193.129,152.094,193.129z" fill="#107192" data-original="#000000" style="" class=""/>
			<path d="M152.094,297.035h88.847c4.518,0,7.529-3.012,7.529-7.529s-3.012-7.529-7.529-7.529h-88.847     c-4.518,0-7.529,3.012-7.529,7.529S148.329,297.035,152.094,297.035z" fill="#107192" data-original="#000000" style="" class=""/>
			<path d="M152.094,401.694H320c4.518,0,7.529-3.012,7.529-7.529s-3.012-7.529-7.529-7.529H152.094     c-4.518,0-7.529,3.012-7.529,7.529S147.576,401.694,152.094,401.694z" fill="#107192" data-original="#000000" style="" class=""/>
		</g>
	</g>
</g>
<g xmlns="http://www.w3.org/2000/svg">
</g>
<g xmlns="http://www.w3.org/2000/svg">
</g>
<g xmlns="http://www.w3.org/2000/svg">
</g>
<g xmlns="http://www.w3.org/2000/svg">
</g>
<g xmlns="http://www.w3.org/2000/svg">
</g>
<g xmlns="http://www.w3.org/2000/svg">
</g>
<g xmlns="http://www.w3.org/2000/svg">
</g>
<g xmlns="http://www.w3.org/2000/svg">
</g>
<g xmlns="http://www.w3.org/2000/svg">
</g>
<g xmlns="http://www.w3.org/2000/svg">
</g>
<g xmlns="http://www.w3.org/2000/svg">
</g>
<g xmlns="http://www.w3.org/2000/svg">
</g>
<g xmlns="http://www.w3.org/2000/svg">
</g>
<g xmlns="http://www.w3.org/2000/svg">
</g>
<g xmlns="http://www.w3.org/2000/svg">
</g>
</g></svg>
